 <svg  version="1.0" xmlns="http://www.w3.org/2000/svg"  width="300.000000pt" height="300.000000pt" viewBox="0 0 300.000000 300.000000"  preserveAspectRatio="xMidYMid meet">  <g transform="translate(0.000000,300.000000) scale(0.100000,-0.100000)" fill="#186bb9" stroke="none"> <path d="M263 2990 c-97 -20 -186 -92 -232 -189 l-26 -56 0 -1245 0 -1245 26 -56 c34 -72 96 -134 168 -168 l56 -26 1245 0 1245 0 56 26 c72 34 134 96 168 168 l26 56 0 1245 0 1245 -26 56 c-34 72 -96 134 -168 168 l-56 26 -1220 2 c-671 0 -1239 -3 -1262 -7z m534 -431 c60 -29 120 -101 139 -167 50 -169 -75 -341 -247 -342 -158 0 -273 113 -273 270 0 125 83 228 209 261 44 11 124 1 172 -22z m1388 -664 c198 -42 326 -167 382 -375 16 -58 18 -119 18 -585 l0 -520 -225 0 -225 0 -5 450 -5 450 -28 58 c-34 68 -79 102 -155 117 -92 17 -179 -9 -239 -72 -68 -71 -67 -65 -73 -558 l-5 -445 -217 -3 -218 -2 0 725 0 725 220 0 220 0 0 -83 0 -83 68 66 c132 128 299 175 487 135z m-1275 -760 l0 -725 -225 0 -225 0 0 725 0 725 225 0 225 0 0 -725z"/> </g> </svg> 